# xmcd CD database file
# Copyright (C) 1993-1998 Ti Kan
#
# Track frame offsets:
#  150
#  16750
#  31692
#  48497
#  61635
#  76820
#  92925
#  117972
#  137520
#  156587
#  175890
#  192025
#  211590
#  223320
#  241002
#
# Disc length: 3552 seconds
#
# Revision: 1
# Processed by: cddbd v1.4b41PL1 Copyright (c) Steve Scherf et al.
# Submitted via: CDWizzard Release:4.35
#
DISCID=bb0dde0f
DTITLE=Various Artist - Rock 'N' Roll Fantasy, The Ultimate Rock Album
DYEAR=1900
DGENRE=
TTITLE0=Rock and Roll
TTITLE1=Rock 'N' Roll Fantasy
TTITLE2=Sweet Little Rock 'N' Roller
TTITLE3=R.O.C.K. In The U.S.A. (A Salute To 60's Rock)
TTITLE4=Rockin' Down The Highway
TTITLE5=So You Want to be a Rock and Roll Star
TTITLE6=Rock Show
TTITLE7=Rock and Roll Stew
TTITLE8=There's Only One Way To Rock
TTITLE9=I'm Just A Singer (In A Rock And Roll Band)
TTITLE10=I'm A Rocker
TTITLE11=Long Live Rock 'N' Roll
TTITLE12=Kids Wanna Rock
TTITLE13=Long Live Rock
TTITLE14=Too Old To Rock 'N' Roll, Too Young to Die
EXTD=
EXTT0=Led Zeppelin
EXTT1=Bad Company
EXTT2=Stewart, Rod
EXTT3=Mellencamp, John
EXTT4=Doobie Brothers
EXTT5=Petty, Tom
EXTT6=Wings
EXTT7=Traffic
EXTT8=Hagar, Sammy
EXTT9=Moody Blues
EXTT10=Springsteen, Bruce
EXTT11=Rainbow
EXTT12=Adams, Bryan
EXTT13=Who
EXTT14=Jethro Tull
PLAYORDER=
